<svg xmlns="http://www.w3.org/2000/svg" viewBox="0 0 1125 2436" fill="none">
  <style>
    .line {
      fill: none;
      stroke: #24332d;
      stroke-width: 4;
      stroke-linecap: round;
      stroke-linejoin: round;
    }

    .dot {
      fill: #24332d;
    }
  </style>
  <g opacity="0.9">
    <path class="line" d="M122 122c42-38 102-39 146-2 44 38 53 99 19 145-37 50-108 59-158 20-50-40-54-121-7-163z" />
    <path class="line" d="M145 151c25-22 63-24 91-2 30 23 35 66 13 94-24 31-70 35-101 9-30-25-31-75-3-101z" />
    <circle class="line" cx="202" cy="203" r="15" />
    <path class="line" d="M321 96c35 15 74 18 112 8M302 63c27 19 59 29 92 29" />

    <path class="line" d="M670 116c-74 24-51 99-51 99l154-49s-30-74-103-50z" />
    <path class="line" d="M630 146s-12-48 31-62 61 31 61 31M620 156l-25-6-5 20 24 4" />
    <circle class="line" cx="668" cy="106" r="7" />
    <path class="line" d="M586 177c-15 9-33 13-50 9-17-3-32-14-34-31" />

    <path class="line" d="M894 126l67-54 60 68-64 58z" />
    <path class="line" d="M923 139l62-54M946 163l62-54M970 186l40-35" />
    <circle class="line" cx="966" cy="117" r="13" />

    <path class="line" d="M214 514c18-61 61-114 119-143" />
    <path class="line" d="M255 637c26 23 72 48 105 42 23-4 41-21 55-39 35-46 56-97 55-154" />
    <path class="line" d="M275 572l23 65c2 6 6 13 12 15 12 4 21-7 26-19l25-61c5-11 9-22 9-34 0-12-7-24-18-28-3 28-12 56-26 81-3-13 2-26 4-40s-2-30-15-34c-13-4-25 8-34 18" />
    <circle class="line" cx="455" cy="562" r="15" />
    <circle class="line" cx="508" cy="562" r="14" />
    <path class="line" d="M456 547s3-24 11-32 25-19 25-19-6 21 3 33c8 12 13 19 13 19" />

    <path class="line" d="M789 406c-43-46-4-74-4-74l-44-37-147 211 115 100 196-161-41-36s-34 43-75-3z" />
    <circle class="line" cx="733" cy="477" r="42" />
    <circle class="line" cx="733" cy="477" r="27" />
    <path class="line" d="M740 330l47-109 26 9-57 113M769 376l62-89 21 17-25 30-21 33 44-32 9 17-72 53" />

    <path class="line" d="M119 733c-14-16-34-28-56-30s-44 8-56 26c-13 18-11 50-4 66s25 38 40 51 31 18 50 18c20 1 40-9 49-26 8-14 7-31 4-47-4-21-13-41-27-58z" />
    <path class="line" d="M79 727c3 9 12 23 20 28 3 2 6 3 9 2 4-1 6-6 5-10s-3-7-3-7" />
    <path class="line" d="M48 704c-4 1-7 4-9 7-3 2-5 6-5 10s3 7 7 8c3 0 7-1 8 2 1 2-1 4-3 5-4 4-8 8-8 13-1 5 3 11 8 12 6 1 13-3 18 1 7 6-5 18-2 26 3 10 17 11 26 9-2 4-3 9-3 13 0 5 1 10 4 13 4 4 10 5 16 4 5-1 10-4 15-7-1 4 1 9 4 11 4 3 9 3 12 0" />

    <path class="line" d="M592 760c-31-27-74-48-115-52-4 1-9 5-13 9-3 3-2 7-3 12-34 42-68 82-102 124-7 8-14 17-14 28 0 4 2 9 6 9 2 0 3-1 4-1 11-5 103-60 107-62 10-5 20-9 30-13 32-13 64-25 98-33 2-7 3-14 2-21z" />
    <path class="line" d="M478 720c18 1 36 7 51 16M537 740l11 7M463 748c-8 6-9 17-5 20 7 6 17 3 26-7 5-6 2-15-1-18-4-4-14 0-20 5z" />

    <path class="line" d="M984 704c-19-3-35 8-48 21-33 31-57 72-69 117 0 0-20 36-36 64-3 6-3 14 1 19 7 10 21 15 32 14 16-2 29-14 37-27 9-13 15-28 24-41 14-20 36-33 55-48s38-34 42-58-12-57-38-61z" />
    <path class="line" d="M882 902c-3 3-6 6-9 7-4 2-9 2-12-1-4-3-5-9-4-14 2-5 5-8 8-12 14-19 20-42 30-64 12-29 31-54 54-75 3-2 6-5 10-5 5-1 10 2 13 6 7 8 7 19 3 28s-11 16-18 22c-8 6-16 11-23 17-25 24-31 63-52 91" />

    <circle class="line" cx="982" cy="1179" r="88" />
    <circle class="line" cx="982" cy="1176" r="31" />
    <path class="line" d="M1034 1155c-2-6 6-13 4-19-2-6-10-6-16-4s-12 4-16 0c-6-5-3-17-10-20-10-5-18 19-29 14-3-2-5-6-7-8-5-4-13 0-17 5-3 6-18 34-22 40-5 6-8 14-6 22 1 4 3 8 3 12 0 8-8 15-3 21 5 7 17-1 25 3 4 2 6 7 8 11 7 12 35 11 40 10s10 2 15 2c11 2 21-4 27-13 9-12 10-29 16-43 3-7 8-16 2-22-4-4-12-4-14-11z" />

    <path class="line" d="M286 1405c-19 9-33 20-31 25 2 4 20 1 39-8s33-20 31-25-20-1-39 8z" />
    <path class="line" d="M255 1430l23 48s18-1 38-10 32-22 32-22l-23-49" />
    <path class="line" d="M267 1433c0 3 1 6 2 8 1 3 3 5 6 5s5-2 5-5c0-2-2-4-1-6 1-1 4 0 6 2 2 3 5 7 6 11 1 2 2 4 4 4 3 1 5-2 6-5 0-3-2-6-3-8-1-3 0-7 2-8s5 0 7 1c2 2 4 4 6 5 2 2 5 2 7-1s0-6-2-8-4-5-2-8c1-1 2-2 3-3" />

    <path class="line" d="M887 1581l-16-11c-4-2-8-3-12-2s-8 3-10 6l-16 23c-2 4-3 8-2 12s3 7 6 10l17 11c7 5 16 3 21-4l16-23c5-7 3-17-4-22z" />
    <path class="line" d="M949 1621c-12-8-30-4-39 10s-7 32 5 40c12 9 30 4 39-10s7-31-5-40z" />
    <path class="line" d="M985 1654l-21-14-25 36 21 14z" />
    <path class="line" d="M1034 1693c-6-4-13-5-20-3s-13 7-18 13c-4 7-6 15-5 22s4 13 10 17c12 8 29 4 38-10s7-31-5-39z" />

    <path class="line" d="M148 1846c-8-8-19-13-31-12-27 3-48 42-50 69-1 14 10 25 19 36 10 12 21 23 36 27 14 4 30 2 42-7s19-24 19-39c0-17-8-32-16-46-6-10-11-20-19-28z" />
    <ellipse class="line" cx="116" cy="1898" rx="9" ry="16" transform="rotate(8 116 1898)" />
    <path class="line" d="M104 1935c-5-4-10-8-14-14s-6-12-6-19c0-7 4-14 9-19 5-6 11-10 18-13 4-2 8-4 11-7 3-4 3-9 0-12" />

    <circle class="line" cx="505" cy="2024" r="24" />
    <circle class="line" cx="405" cy="1988" r="10" />
    <path class="line" d="M459 2123l-15-43-26-8M451 2056l-7 24-18-32" />
    <path class="line" d="M264 2154s47 46 103 10 27-95 27-95zM303 2213l130-85" />

    <path class="line" d="M618 2032c-11-6-25-3-37 1-30 13-53 38-75 63 0 0-11 12-11 28 0 8 13 16 20 19 12 3 21-13 30-21 15-14 32-26 51-33 12-5 25-9 32-19 6-10 5-23-2-32-2-2-5-5-8-6z" />
    <path class="line" d="M706 2200l13-28 20 26-31 5M669 2225l-30 1 20 27 12-25" />
    <ellipse class="line" cx="689" cy="2214" rx="22" ry="16" transform="rotate(-36 689 2214)" />

    <path class="line" d="M815 2303c-2-1-16-3-18-14-3-12 9-19 11-20l317-70" />
    <path class="line" d="M821 2302l6 26M1107 2239l6 25M839 2366l-12 11c-2 2-3 5-1 7 1 2 3 3 5 3 28-6 98-22 142-31 43-9 116-25 152-33" />
    <path class="line" d="M824 2397l301-66M838 2382l2 10" />
  </g>
</svg>
